<svg xmlns="http://www.w3.org/2000/svg" width="102" height="96" viewBox="0 0 102 96"><g><g><path fill="#303c42" d="M99.965 60.69c1.306 3.581 1.655 7.459 1.232 11.235-.74 6.618-3.78 12.114-8.387 16.912-2.297 2.39-5.216 3.947-8.44 4.904-4.856 1.444-10.888-.143-15.277-2.399-3.271-1.68-6.09.205-9.427 1.169-4.48 1.295-9.117 2.174-13.794 2.176-3.76 0-7.667-.304-11.415-1.137-5.352-1.193-10.384-3.778-14.844-6.595-4.456-2.818-8.352-5.885-11.335-8.065-.348-.268-1.3-.709-2.253-1.077-.973-.386-1.938-.721-2.667-1.074a3.716 3.716 0 0 1-.665-.399 3.836 3.836 0 0 1-1.464-3.023v-3.712c.004-.386.056-.705.133-1.171.079-.453.189-1.005.33-1.654.28-1.297.679-2.985 1.168-4.966.977-3.961 2.313-9.09 3.758-14.511 2.893-10.84 6.22-22.837 7.986-28.923.506-1.744.878-2.989 1.095-3.641.308-.874.859-1.328 1.258-1.634.39-.285.696-.424.784-.464C17.74 12.64 43.23.998 43.23.998a1.6 1.6 0 0 1 1.932.482l8.666 11.281.024.032c.59.809.884 1.766.883 2.712a4.598 4.598 0 0 1-1.167 3.063l-7.773 8.715a4.595 4.595 0 0 1-3.436 1.537 4.584 4.584 0 0 1-2.96-1.078l-.054-.048-2.01-1.853a5.982 5.982 0 0 1-.826.462c-.857.381-1.761.597-2.61.745-.332.057-.65.099-.955.136.145.228.24.488.256.758l1.432 24.326c4.222-2.649 8.352-3.632 12.014-3.625 4.36.002 8.033 1.34 10.618 2.663a24.976 24.976 0 0 1 2.832 1.692c2.705-3.305 5.549-5.593 8.405-7.069 6.197-3.204 13.487-3.698 19.723-.271 5.597 3.077 9.599 9.156 11.74 15.032zM89.714 87.362c7.084-5.766 10.395-17.195 7.435-25.318-1.801-4.943-5.388-9.993-10.028-12.797-5.011-3.029-11.08-3.149-16.252-.477-2.455 1.269-5.88 3.28-8.371 6.345 4.099 4.5 4.297 7.717 4.282 8.095a1.598 1.598 0 0 1-3.193.039c-.005 0-.006-.032-.006-.032l-.042-.268a6.76 6.76 0 0 0-.427-1.307c-.51-1.189-1.576-3.002-3.822-5.258l-.16-.131c-.15-.119-.38-.295-.683-.51a21.89 21.89 0 0 0-2.64-1.592c-2.271-1.164-5.467-2.313-9.16-2.311-3.582.008-7.655 1.052-12.037 4.321-.577 2.172-1.158 3.636-1.718 4.659-.61 1.103-1.208 1.728-1.818 2.08-.4.233-.8.314-1.067.31a1.594 1.594 0 1 1-.493-3.113l.213-.244c.39-.51 1.123-1.887 1.867-4.799l-1.557-26.45-.204-.275c-.31-.413-.755-1.003-1.296-1.703a1.597 1.597 0 0 1 1.427-2.568l.786.08.332-.01c.27-.011.653-.032 1.089-.075.87-.08 1.973-.262 2.743-.551.518-.183.847-.431.895-.51l.015-.023a1.61 1.61 0 0 1 1.138-.915 1.604 1.604 0 0 1 1.406.391l3.095 2.854c.266.219.575.323.897.324a1.393 1.393 0 0 0 1.047-.469l7.775-8.715c.237-.266.354-.596.355-.934a1.4 1.4 0 0 0-.27-.828l-7.866-10.24-24.333 11.112-.028.014-.126.075-.2.166c-.265.805-.88 2.886-1.691 5.732-.831 2.91-1.875 6.638-3.006 10.73-2.262 8.186-4.867 17.835-6.797 25.339-1.285 4.995-2.275 9.067-2.645 11.026a9.5 9.5 0 0 0-.15.974l-.001 3.712a.626.626 0 0 0 .233.496l.032.018.28.133c.248.108.589.243.973.39.77.298 1.71.646 2.582 1.041.585.269 1.135.547 1.64.914 3.053 2.234 6.869 5.234 11.155 7.944 4.285 2.71 9.027 5.112 13.83 6.175 3.448.767 7.135 1.063 10.72 1.062 6.576-.002 12.91-1.711 19.049-3.925 2.599-.937 4.246.484 6.777 1.478 3.778 1.482 7.939 2.523 11.967 1.46 2.232-.589 4.262-1.684 6.052-3.141z"/></g><g><path fill="none" stroke="#303c42" stroke-miterlimit="20" stroke-width=".28" d="M99.965 60.69c1.306 3.581 1.655 7.459 1.232 11.235-.74 6.618-3.78 12.114-8.387 16.912-2.297 2.39-5.216 3.947-8.44 4.904-4.856 1.444-10.888-.143-15.277-2.399-3.271-1.68-6.09.205-9.427 1.169-4.48 1.295-9.117 2.174-13.794 2.176-3.76 0-7.667-.304-11.415-1.137-5.352-1.193-10.384-3.778-14.844-6.595-4.456-2.818-8.352-5.885-11.335-8.065-.348-.268-1.3-.709-2.253-1.077-.973-.386-1.938-.721-2.667-1.074a3.716 3.716 0 0 1-.665-.399 3.836 3.836 0 0 1-1.464-3.023v-3.712c.004-.386.056-.705.133-1.171.079-.453.189-1.005.33-1.654.28-1.297.679-2.985 1.168-4.966.977-3.961 2.313-9.09 3.758-14.511 2.893-10.84 6.22-22.837 7.986-28.923.506-1.744.878-2.989 1.095-3.641.308-.874.859-1.328 1.258-1.634.39-.285.696-.424.784-.464C17.74 12.64 43.23.998 43.23.998a1.6 1.6 0 0 1 1.932.482l8.666 11.281.024.032c.59.809.884 1.766.883 2.712a4.598 4.598 0 0 1-1.167 3.063l-7.773 8.715a4.595 4.595 0 0 1-3.436 1.537 4.584 4.584 0 0 1-2.96-1.078l-.054-.048-2.01-1.853a5.982 5.982 0 0 1-.826.462c-.857.381-1.761.597-2.61.745-.332.057-.65.099-.955.136.145.228.24.488.256.758l1.432 24.326c4.222-2.649 8.352-3.632 12.014-3.625 4.36.002 8.033 1.34 10.618 2.663a24.976 24.976 0 0 1 2.832 1.692c2.705-3.305 5.549-5.593 8.405-7.069 6.197-3.204 13.487-3.698 19.723-.271 5.597 3.077 9.599 9.156 11.74 15.032zM89.714 87.362c7.084-5.766 10.395-17.195 7.435-25.318-1.801-4.943-5.388-9.993-10.028-12.797-5.011-3.029-11.08-3.149-16.252-.477-2.455 1.269-5.88 3.28-8.371 6.345 4.099 4.5 4.297 7.717 4.282 8.095a1.598 1.598 0 0 1-3.193.039c-.005 0-.006-.032-.006-.032l-.042-.268a6.76 6.76 0 0 0-.427-1.307c-.51-1.189-1.576-3.002-3.822-5.258l-.16-.131c-.15-.119-.38-.295-.683-.51a21.89 21.89 0 0 0-2.64-1.592c-2.271-1.164-5.467-2.313-9.16-2.311-3.582.008-7.655 1.052-12.037 4.321-.577 2.172-1.158 3.636-1.718 4.659-.61 1.103-1.208 1.728-1.818 2.08-.4.233-.8.314-1.067.31a1.594 1.594 0 1 1-.493-3.113l.213-.244c.39-.51 1.123-1.887 1.867-4.799l-1.557-26.45-.204-.275c-.31-.413-.755-1.003-1.296-1.703a1.597 1.597 0 0 1 1.427-2.568l.786.08.332-.01c.27-.011.653-.032 1.089-.075.87-.08 1.973-.262 2.743-.551.518-.183.847-.431.895-.51l.015-.023a1.61 1.61 0 0 1 1.138-.915 1.604 1.604 0 0 1 1.406.391l3.095 2.854c.266.219.575.323.897.324a1.393 1.393 0 0 0 1.047-.469l7.775-8.715c.237-.266.354-.596.355-.934a1.4 1.4 0 0 0-.27-.828l-7.866-10.24-24.333 11.112-.028.014-.126.075-.2.166c-.265.805-.88 2.886-1.691 5.732-.831 2.91-1.875 6.638-3.006 10.73-2.262 8.186-4.867 17.835-6.797 25.339-1.285 4.995-2.275 9.067-2.645 11.026a9.5 9.5 0 0 0-.15.974l-.001 3.712a.626.626 0 0 0 .233.496l.032.018.28.133c.248.108.589.243.973.39.77.298 1.71.646 2.582 1.041.585.269 1.135.547 1.64.914 3.053 2.234 6.869 5.234 11.155 7.944 4.285 2.71 9.027 5.112 13.83 6.175 3.448.767 7.135 1.063 10.72 1.062 6.576-.002 12.91-1.711 19.049-3.925 2.599-.937 4.246.484 6.777 1.478 3.778 1.482 7.939 2.523 11.967 1.46 2.232-.589 4.262-1.684 6.052-3.141z"/></g><g><path fill="#303c42" d="M45.531 82.169c-12.778 2.652-18.184-6.112-18.407-6.486a.974.974 0 0 0-1.676.994c.063.107 1.598 2.662 4.9 4.85 2.274 1.508 5.747 3.05 10.46 3.08 1.568.01 3.275-.147 5.12-.531a.974.974 0 0 0-.397-1.907z"/></g><g><path fill="none" stroke="#303c42" stroke-miterlimit="20" stroke-width=".99" d="M45.531 82.169c-12.778 2.652-18.184-6.112-18.407-6.486a.974.974 0 0 0-1.676.994c.063.107 1.598 2.662 4.9 4.85 2.274 1.508 5.747 3.05 10.46 3.08 1.568.01 3.275-.147 5.12-.531a.974.974 0 0 0-.397-1.907z"/></g></g></svg>