<svg xmlns="http://www.w3.org/2000/svg" width="107" height="90" viewBox="0 0 107 90"><g><g><path fill="#303c42" d="M60.548 75.636c-.271.033-.552.07-.803.178-7.148 3.032-15.785 1.363-21.778-3.404-.746-.592-1.47-1.229-2.103-1.94-.584-.654-1.228-1.6-2.237-1.467-.658.087-1.195.741-1.18 1.385.009.34.09.658.315.918 4.26 4.913 10.575 8.498 17.144 8.81 3.629.172 7.835-.517 11.257-1.755a1.407 1.407 0 0 0 .657-2.12c-.302-.442-.73-.67-1.272-.605z"/></g><g><path fill="#303c42" d="M106.727 61.201c.155 1.458.179 2.917.087 4.373a26.41 26.41 0 0 1-2.014 8.644 29.049 29.049 0 0 1-3.297 5.806 37.867 37.867 0 0 1-2.652 3.224 18.364 18.364 0 0 1-5.916 4.337c-1.23.562-2.488 1.042-3.807 1.34a15.009 15.009 0 0 1-4.43.338 23.703 23.703 0 0 1-4.073-.633 27.852 27.852 0 0 1-5.57-2.04 51.043 51.043 0 0 0-.818-.392c-1.14-.536-2.334-.605-3.555-.408-.652.104-1.287.29-1.912.507-.215.074-.43.148-.642.224-1.947.695-3.915 1.33-5.93 1.795-1.732.401-3.477.766-5.238.991-1.775.228-3.557.402-5.352.378-.606-.008-1.212.002-1.818-.012a63.288 63.288 0 0 1-4.285-.27 46.23 46.23 0 0 1-3.194-.412 36.37 36.37 0 0 1-7.005-1.868c-2.84-1.076-5.537-2.442-8.148-3.986-5.776-3.414-12.224-7.453-16.282-12.905-1.586-2.13-2.783-4.51-4.237-6.725-1.486-2.263-3.4-3.963-5.275-5.882-1.26-1.288-1.28-2.827-.758-4.473 1.174-3.694 3.26-6.758 5.397-9.938a688.362 688.362 0 0 1 7.116-10.338A1699.284 1699.284 0 0 1 30.407 8.573c.97-1.337 1.955-2.664 2.936-3.994.212-.288.436-.568.65-.854.654-.87 1.562-1.29 2.609-1.42.957-.119 1.928-.136 2.887-.242.844-.093 1.693-.133 2.54-.202.112-.008.223-.025.335-.033 1.016-.072 2.032-.137 3.048-.216 1.016-.078 2.03-.17 3.045-.256.082-.007.164-.018.246-.024 1.017-.072 2.034-.137 3.049-.215 1.015-.079 2.03-.172 3.045-.258.082-.007.164-.017.247-.023C56.06.766 57.076.7 58.092.62c1.016-.078 2.03-.17 3.045-.256.247-.02.495-.033.742-.052.439-.034.877-.076 1.317-.105.522-.035 1.044-.08 1.566-.086.764-.009 1.317.374 1.603 1.073.062.152.11.311.16.468 1.358 4.334 2.714 8.67 4.076 13.002.16.51.249 1.046.233 1.581-.05 1.646-.772 2.923-2.13 3.852a4.414 4.414 0 0 1-.426.25c-3.28 1.77-6.56 3.537-9.84 5.306-.332.18-.677.341-1.044.432-2.354.583-4.64-.444-5.636-2.245-.227-.41-.443-.825-.663-1.238-.116-.22-.225-.442-.343-.659-.17-.313-.224-.347-.596-.279-.63.115-1.263.103-1.893.037-.52-.054-1.033-.158-1.55-.239-.081-.013-.163-.017-.245-.023-.103-.008-.221.077-.241.18-.153.814-.444 1.59-.674 2.381-.871 3.001-2.091 5.897-2.962 8.89-.892 3.062-2.086 5.931-2.242 9.167a16.774 16.774 0 0 0 .3 4.074c.434-.235.803-.522 1.204-.809 1.708-1.22 3.506-2.28 5.437-3.11 1.824-.785 3.726-1.309 5.715-1.518.694-.074 1.397-.09 2.093-.046 2.079.13 4.062.63 5.925 1.567a18.101 18.101 0 0 1 4.239 2.987c.282.264.56.531.84.794a.228.228 0 0 0 .3.004c.063-.056.124-.11.185-.168 4.73-4.462 11.286-7.71 17.892-7.624 4.533.06 8.592 1.462 12.125 4.328a23.779 23.779 0 0 1 3.12 3.064c1.907 2.238 3.433 4.717 4.647 7.388.399.876.77 1.768 1.099 2.671a23.252 23.252 0 0 1 1.257 5.542zm-3.507 6.16c.203-1.224.319-2.46.319-3.7 0-2.586-.423-5.093-1.424-7.495-1.406-3.37-3.344-6.383-5.951-8.95-1.521-1.499-3.387-2.98-5.324-3.9-4.006-1.902-8.615-1.933-12.773-.489-3.063 1.063-5.943 3.041-8.374 5.19-.35.31-.677.646-1.01.975-.101.101-.11.245-.035.381.094.168.195.332.292.5 1.107 1.898 2.115 3.847 2.91 5.903.14.36.257.728.344 1.103.087.38.16.768.188 1.157.03.42-.058.825-.33 1.166-.407.513-.943.763-1.596.655-.717-.119-1.175-.563-1.39-1.256-.024-.078-.032-.162-.042-.244-.114-.936-.403-1.825-.745-2.699-.754-1.929-1.705-3.758-2.803-5.512a5.39 5.39 0 0 0-.413-.58c-1.04-1.275-2.216-2.404-3.57-3.34-1.442-.999-3.008-1.717-4.733-2.069A12.354 12.354 0 0 0 52.736 44c-2.135.265-4.111.99-5.995 1.996-1.511.807-2.857 1.488-4.183 2.57-.612.5-1.2 1.03-1.801 1.543a1.163 1.163 0 0 0-.364.565c-.136.476-.335 1.234-.478 1.708a25.771 25.771 0 0 1-.838 2.418c-.21.51-.443 1.008-.727 1.481a5.541 5.541 0 0 1-.97 1.228 3.042 3.042 0 0 1-1.2.705 1.732 1.732 0 0 1-1.955-.705c-.38-.565-.384-1.604.303-2.182.084-.07.17-.148.268-.19.378-.167.588-.486.78-.824.289-.504.515-1.037.712-1.58.294-.81.54-1.637.753-2.474.066-.257.36-3.86.36-6.568 0-2.626 1.139-7.217 1.897-9.729.964-3.197 2.058-6.337 3.125-9.5.283-.842.464-1.973.296-2.88-.113-.613-.343-1.204-.517-1.81-.061-.212-.142-.418-.195-.63a1.708 1.708 0 0 1 1.177-2.078c.323-.098.653-.094.975.017.13.045.259.096.38.158.97.493 2.019.717 3.073.926a7.65 7.65 0 0 0 1.64.163c.395-.007.759-.072 1.084-.324.263-.206.57-.325.915-.338.63-.025 1.123.23 1.485.735.127.177.223.38.323.575.468.905.93 1.812 1.397 2.718.1.195.203.391.312.582.319.561 1.048.87 1.713.526.147-.075.295-.148.44-.226 3.106-1.665 6.21-3.33 9.314-4.998.16-.086.324-.169.48-.262.457-.272.757-.769.696-1.297-.03-.253-.11-.502-.186-.747-.69-2.207-1.382-4.412-2.075-6.618-.453-1.444-.907-2.888-1.363-4.33a5.728 5.728 0 0 0-.2-.54c-.047-.108-.15-.155-.27-.158-.026 0-.054-.006-.081-.004l-2.634.22c-.11.01-.22.022-.33.03-1.042.074-2.087.141-3.13.221-.988.077-1.975.168-2.962.253-.137.012-.275.022-.412.033-1.318.103-2.634.21-3.952.31-1.016.076-2.033.142-3.05.22-1.014.078-2.03.165-3.045.25-.11.008-.218.024-.328.032-1.016.072-2.033.142-3.048.216-.852.063-1.703.127-2.554.198-.274.023-.546.068-.82.106a.542.542 0 0 0-.35.198c-.174.214-.346.43-.51.651-1.513 2.066-3.036 4.125-4.534 6.202-6.655 9.224-13.237 18.5-19.69 27.865-2.915 4.23-6.19 8.404-7.983 13.263-.581 1.575.355 1.96 1.443 2.843.82.666 1.518 1.491 2.173 2.32 1.42 1.797 2.587 3.775 3.817 5.702 1.806 2.831 3.868 5.382 6.329 7.667 4.515 4.19 10.034 7.476 15.572 10.115 11.06 5.27 23.686 4.405 34.985.594.704-.238 1.412-.466 2.106-.73.719-.275 1.454-.347 2.212-.303.402.024.8.104 1.178.242.545.2 1.088.412 1.61.664a33.25 33.25 0 0 0 4.882 1.878c.935.281 1.89.493 2.855.643 1.09.17 2.19.273 3.299.204a14.36 14.36 0 0 0 5.69-1.56c1.938-.989 3.61-2.32 5.074-3.917 1.766-1.928 3.13-4.114 4.187-6.498a26.512 26.512 0 0 0 1.904-6.393z"/></g></g></svg>