<svg xmlns="http://www.w3.org/2000/svg" width="24" height="30" viewBox="0 0 24 30"><g><g><path fill="#303c42" d="M5.212 7.834A2.347 2.347 0 0 1 7.55 5.496h13.749a2.34 2.34 0 0 1 2.338 2.338v19.729a2.339 2.339 0 0 1-2.338 2.337H7.55a2.339 2.339 0 0 1-2.338-2.337zm1.641 19.722c0 .387.315.703.703.703h13.75a.704.704 0 0 0 .702-.703V7.834a.702.702 0 0 0-.702-.702H7.556a.702.702 0 0 0-.703.702z"/></g><g><path fill="#303c42" d="M-.046 2.66v19.73a2.339 2.339 0 0 0 2.338 2.337.815.815 0 0 0 .818-.818.814.814 0 0 0-.818-.817.703.703 0 0 1-.703-.702V2.66c0-.387.315-.701.703-.701h13.75c.388 0 .703.314.703.702 0 .454.363.817.817.817a.814.814 0 0 0 .818-.817A2.34 2.34 0 0 0 16.042.323H2.292A2.34 2.34 0 0 0-.046 2.66z"/></g></g></svg>