<svg xmlns="http://www.w3.org/2000/svg" width="60" height="43" viewBox="0 0 60 43"><g><g><path fill="#42526e" d="M59.656 20.77c.142.374.14.788-.001 1.166-4.607 12.255-16.502 20.49-29.597 20.49-13.096 0-24.991-8.235-29.6-20.492A1.64 1.64 0 0 1 .46 20.77C5.067 8.512 16.962.277 30.058.277c13.095 0 24.99 8.235 29.598 20.493zm-3.33.582l-.077-.19C51.935 10.653 41.41 3.593 30.056 3.593c-11.352 0-21.878 7.06-26.191 17.57l-.078.19.078.188c4.313 10.51 14.839 17.57 26.192 17.57s21.878-7.06 26.19-17.57z"/></g><g><path fill="#303c42" d="M30.057 9.81c6.364 0 11.542 5.177 11.542 11.541 0 6.365-5.178 11.541-11.542 11.541s-11.542-5.176-11.542-11.54c0-6.365 5.178-11.542 11.542-11.542zm0 19.601c4.444 0 8.06-3.615 8.06-8.06 0-4.443-3.616-8.058-8.06-8.058-4.444 0-8.059 3.615-8.059 8.058 0 4.445 3.615 8.06 8.06 8.06z"/></g></g></svg>