<svg xmlns="http://www.w3.org/2000/svg" width="20" height="20" viewBox="-5 0 65 35"><g><g><path fill="#efefef" d="M52.741 48.331c-.003 1.96-.825 2.798-2.809 2.804-5.275.016-10.55.015-15.825.002-1.984-.004-2.77-.819-2.774-2.82-.008-3.307.01-9.84-.014-13.147-.013-1.85-.843-3.284-2.494-4.117-1.668-.842-3.363-.759-4.93.308-1.463.995-2.005 2.46-2 4.18.005 3.148.001 9.524 0 12.673-.002 2.161-.754 2.928-2.9 2.93-5.079.003-10.157.001-15.235-.006-2.258-.003-2.945-.699-2.946-2.985-.003-8.896.024-17.21-.019-26.107-.012-2.614.928-4.589 3.083-6.125 7.051-5.025 14.05-10.124 21.07-15.19 1.456-1.05 2.207-1.059 3.63-.033C35.693 5.833 42.8 10.982 49.925 16.105c1.908 1.372 2.84 3.178 2.825 5.53-.027 4.525-.008 10.053-.008 14.58 0 4.566.005 7.55-.002 12.116zm-4.404-1.569v-1.795c-.002-7.794-.024-15.006.015-22.799.006-1.229-.39-2.055-1.39-2.774A2785.634 2785.634 0 0 1 27.464 5.258c-.615-.45-.999-.334-1.54.057A4036.637 4036.637 0 0 1 6.47 19.31c-.96.685-1.37 1.48-1.366 2.67.037 7.95.02 15.32.023 23.27.001.456.047.913.075 1.415h12.483v-1.442c.002-2.283-.024-7.793.011-10.075.076-4.973 4.045-8.923 8.964-8.957 4.963-.034 9.005 3.916 9.102 8.938.045 2.321.013 7.871.015 10.193v1.441z"/></g></g></svg>