<svg xmlns="http://www.w3.org/2000/svg" width="41" height="37" viewBox="0 0 41 37"><g><g><path fill="#303c42" d="M34.825 13.37c3.064.08 5.557 2.706 5.557 5.852v9.75a5.842 5.842 0 0 1-3.999 5.548l-.585.196a39.846 39.846 0 0 1-12.618 2.047h-1.208a39.962 39.962 0 0 1-19.795-5.257c-1.502-.858-2.23-2.595-1.768-4.223.216-.762.326-1.789.326-3.055 0-2.207 1.08-5.788 3.212-10.64 1.769-4.03 4.288-7.696 7.489-10.897a9.144 9.144 0 0 1 6.507-2.695c1.179 0 2.321.345 3.301 1l2.028 1.351a2.496 2.496 0 0 1 .693 3.472c.911.982.905 2.514-.05 3.47l-3.343 3.342a2.492 2.492 0 0 1-1.772.735h-4.225c.009.876.159 1.93.316 3.016.182 1.27.369 2.7.4 4.135a9.148 9.148 0 0 1 5.872-2.138 9.15 9.15 0 0 1 3.767.83c1.864-3.566 5.529-5.843 9.603-5.843zm1.028 19.565a4.172 4.172 0 0 0 2.858-3.963v-9.75c0-2.249-1.764-4.125-3.931-4.182l-.247-.003c-3.464 0-6.578 1.945-8.148 4.987.438.305.862.636 1.248 1.02a.836.836 0 1 1-1.176 1.185 7.476 7.476 0 0 0-5.294-2.179 7.496 7.496 0 0 0-6.32 3.444c-.011.016-.03.021-.041.037-.824 1.97-2.464 2.93-3.464 3.18a.835.835 0 0 1-1.013-.608.836.836 0 0 1 .601-1.013c.112-.029 2.716-.762 2.716-4.204 0-1.44-.206-2.877-.405-4.266-.384-2.675-.717-4.985.65-6.352a.835.835 0 1 1 1.182 1.182c-.069.068-.119.157-.172.244H18.8a.848.848 0 0 0 .591-.244l3.342-3.343a.825.825 0 0 0 .08-1.06l-1.827 1.828a2.608 2.608 0 0 1-3.01.49 2.582 2.582 0 0 1-1.409-1.916 2.584 2.584 0 0 1 .73-2.263l.768-.768A.837.837 0 0 1 19.247 5.6l-.768.768a.928.928 0 0 0-.262.813.936.936 0 0 0 1.587.512l2.67-2.669a.833.833 0 0 0 .239-.673.827.827 0 0 0-.368-.613l-2.029-1.352a4.256 4.256 0 0 0-2.373-.719 7.48 7.48 0 0 0-5.325 2.206C9.564 6.926 7.162 10.42 5.478 14.26c-2.01 4.575-3.072 8.023-3.072 9.97 0 1.42-.131 2.601-.389 3.51-.251.887.155 1.84.989 2.316a38.28 38.28 0 0 0 18.966 5.037h1.208c4.117 0 8.184-.66 12.088-1.96z"/></g></g></svg>