<svg xmlns="http://www.w3.org/2000/svg" width="123" height="25" viewBox="0 0 123 25"><g><g><path fill="#303c42" d="M14.69 4.713H9.36v18.961H5.878V4.714H.548V1.391H14.69z"/></g><g><path fill="#303c42" d="M30.17 23.353l-3.562.91-1.367-4.284h-7.097l-1.472 4.339-3.562-.992L21.466 1.15h.803zm-5.973-6.695l-2.383-7.58-2.545 7.58z"/></g><g><path fill="#303c42" d="M45.087 16.952L34.588 24.29l-2.062-2.785 7.178-4.875-9.32-8.704L40.722.83l2.17 2.732-7.125 4.687z"/></g><g><path fill="#303c42" d="M61.853 21.773l-2.571 2.491-8.303-8.65V23.7h-3.481V1.392h3.481v7.5L58.773.828l2.571 2.411-9.266 8.918z"/></g><g><path fill="#303c42" d="M78.324 23.674H64.263V1.391h3.482v18.962h7.098V1.391h3.48z"/></g><g><path fill="#303c42" d="M94.42 23.674H82.073V1.391h3.482v18.962h8.865z"/></g><g><path fill="#303c42" d="M107.195 3.508l-8.597 7.23h7.686v3.215H98.57l8.544 7.339-2.277 2.972L92.278 12.4 104.57.777z"/></g><g><path fill="#303c42" d="M122.916 16.952l-10.499 7.338-2.062-2.785 7.178-4.875-9.321-8.704L118.55.83l2.17 2.732-7.124 4.687z"/></g></g></svg>