<svg xmlns="http://www.w3.org/2000/svg" width="254" height="50" viewBox="0 0 254 50"><g><g><path fill="#303c42" d="M17.2 5.048c-.623 0-1.133.51-1.133 1.134v41.826c0 .624-.51 1.134-1.134 1.134h-2.071c-.623 0-1.134-.51-1.134-1.134V6.182c0-.624-.51-1.134-1.133-1.134H1.359c-.623 0-1.134-.51-1.134-1.134v-1.87c0-.623.51-1.133 1.134-1.133h25.077c.624 0 1.134.51 1.134 1.134v1.869c0 .624-.51 1.134-1.134 1.134z"/></g><g><path fill="#303c42" d="M87.521 37.252c0 .398-.053 1.23-.118 1.852 0 0-.213 2.044-.874 3.479a12.468 12.468 0 0 1-2.657 3.767 12.386 12.386 0 0 1-3.869 2.54c-1.468.616-3.529.815-3.529.815-.621.06-1.639.11-2.263.11h-1.196c-.623 0-1.641-.05-2.263-.11 0 0-2.061-.2-3.529-.815a12.382 12.382 0 0 1-3.868-2.54 12.468 12.468 0 0 1-2.657-3.767c-.661-1.435-.875-3.48-.875-3.48a24.403 24.403 0 0 1-.117-2.086c0-.528.503-1.041 1.119-1.141l2.1-.343c.616-.1 1.119.328 1.119.952v.357c0 .624.054 1.64.119 2.262 0 0 .1.952.538 1.88a8.13 8.13 0 0 0 1.765 2.456 8.255 8.255 0 0 0 2.574 1.666 7.674 7.674 0 0 0 1.948.497 28.97 28.97 0 0 0 2.262.108h.76c.624 0 1.642-.05 2.262-.108 0 0 .968-.094 1.933-.497a8.297 8.297 0 0 0 2.555-1.666 8.15 8.15 0 0 0 1.766-2.455 6.598 6.598 0 0 0 .537-1.881c.066-.621.119-1.454.119-1.852a22.1 22.1 0 0 0-.12-1.85s-.205-1.911-.855-3.01a9.23 9.23 0 0 0-2.59-2.808 16.859 16.859 0 0 0-3.65-1.968 239.064 239.064 0 0 0-4.186-1.614 51.564 51.564 0 0 1-4.188-1.783 15.11 15.11 0 0 1-3.649-2.44c-1.076-.973-1.94-2.168-2.59-3.581-.65-1.412-.879-4.083-.879-4.083a26.916 26.916 0 0 1-.097-1.584c0-.25.05-.962.11-1.583 0 0 .198-2.044.815-3.478a11.93 11.93 0 0 1 2.539-3.768 11.906 11.906 0 0 1 3.784-2.54c1.447-.615 3.497-.814 3.497-.814.621-.061 1.639-.11 2.262-.11h.826c.624 0 1.642.05 2.263.11 0 0 2.044.199 3.48.815a11.95 11.95 0 0 1 3.766 2.539 11.93 11.93 0 0 1 2.539 3.768c.617 1.434.816 3.478.816 3.478.06.62.109 1.409.109 1.75 0 .343-.504.705-1.119.806l-2.1.342c-.615.1-1.119-.257-1.119-.793s-.049-1.484-.11-2.105c0 0-.092-.95-.495-1.881a7.834 7.834 0 0 0-1.649-2.438 7.798 7.798 0 0 0-2.438-1.648 7.065 7.065 0 0 0-1.882-.497 28.925 28.925 0 0 0-2.262-.11h-.424c-.623 0-1.641.05-2.262.11 0 0-.951.093-1.881.497a7.991 7.991 0 0 0-2.455 1.648 7.646 7.646 0 0 0-1.665 2.438c-.404.93-.496 1.88-.496 1.88-.06.622-.11 1.334-.11 1.584s.058.96.129 1.58c0 0 .196 1.722.847 2.776.649 1.054 1.514 1.957 2.59 2.708a18.415 18.415 0 0 0 3.649 1.95c1.356.55 2.752 1.11 4.187 1.682 1.435.572 2.831 1.2 4.187 1.883a15.858 15.858 0 0 1 3.65 2.523c1.076.998 1.939 2.215 2.589 3.649.651 1.436.879 4.117.879 4.117.054.622.097 1.456.097 1.853z"/></g><g><path fill="#303c42" d="M97.934 49.141c.623 0 1.134-.51 1.134-1.134V2.044c0-.624-.51-1.133-1.134-1.133h-2.07c-.625 0-1.135.51-1.135 1.133v45.963c0 .624.51 1.134 1.134 1.134zm24.586 0c.624 0 .824-.404.444-.899l-17.15-22.317c-.38-.495-.38-1.304 0-1.799l17.15-22.316c.38-.495.18-.899-.444-.899h-3.114c-.623 0-1.44.407-1.815.905L100.793 24.12c-.376.5-.376 1.313 0 1.811l16.798 22.305c.375.498 1.192.905 1.815.905z"/></g><g><path fill="#303c42" d="M155.689 42.583a11.929 11.929 0 0 1-2.54 3.767 11.946 11.946 0 0 1-3.767 2.54c-1.435.616-3.478.815-3.478.815-.621.06-1.64.109-2.263.109h-1.163c-.624 0-1.643-.048-2.263-.11 0 0-2.05-.198-3.497-.814a11.909 11.909 0 0 1-3.783-2.54 11.926 11.926 0 0 1-2.54-3.767c-.616-1.435-.814-3.48-.814-3.48-.06-.62-.11-1.637-.11-2.261V2.045c0-.624.51-1.134 1.134-1.134h2.07c.624 0 1.134.51 1.134 1.134v34.797c0 .624.05 1.64.11 2.262 0 0 .092.952.496 1.88a7.833 7.833 0 0 0 1.666 2.456 7.833 7.833 0 0 0 2.455 1.665 7.046 7.046 0 0 0 1.882.497c.62.059 1.638.109 2.26.109h.76c.625 0 1.643-.05 2.264-.11 0 0 .95-.092 1.882-.496a7.642 7.642 0 0 0 2.437-1.665 7.991 7.991 0 0 0 1.648-2.455c.404-.93.497-1.881.497-1.881.06-.621.109-1.638.109-2.262V2.045c0-.624.51-1.134 1.134-1.134h2.07c.625 0 1.135.51 1.135 1.134v34.797c0 .624-.05 1.64-.11 2.262 0 0-.2 2.044-.815 3.479z"/></g><g><path fill="#303c42" d="M165.41 49.141c-.624 0-1.135-.51-1.135-1.134V2.044c0-.624.511-1.133 1.134-1.133h2.071c.624 0 1.134.51 1.134 1.133V43.87c0 .625.511 1.134 1.134 1.134h16.197c.624 0 1.134.51 1.134 1.134v1.87c0 .623-.51 1.133-1.134 1.133z"/></g><g><path fill="#303c42" d="M253.47 37.252c0 .398-.052 1.23-.116 1.852 0 0-.214 2.044-.875 3.479a12.468 12.468 0 0 1-2.657 3.767 12.386 12.386 0 0 1-3.87 2.54c-1.467.616-3.528.815-3.528.815-.621.06-1.64.11-2.263.11h-1.196c-.623 0-1.641-.05-2.262-.11 0 0-2.062-.2-3.53-.815a12.382 12.382 0 0 1-3.868-2.54 12.468 12.468 0 0 1-2.657-3.767c-.661-1.435-.874-3.48-.874-3.48a24.423 24.423 0 0 1-.118-2.086c0-.528.503-1.041 1.119-1.141l2.1-.343c.617-.1 1.119.328 1.119.952v.357c0 .624.054 1.64.12 2.262 0 0 .099.952.537 1.88a8.13 8.13 0 0 0 1.765 2.456 8.255 8.255 0 0 0 2.574 1.666c.974.403 1.949.497 1.949.497.62.059 1.638.108 2.26.108h.76c.625 0 1.643-.05 2.264-.108 0 0 .967-.094 1.932-.497a8.297 8.297 0 0 0 2.555-1.666 8.15 8.15 0 0 0 1.766-2.455c.437-.93.538-1.881.538-1.881.065-.621.118-1.454.118-1.852a22.1 22.1 0 0 0-.12-1.85s-.205-1.911-.855-3.01a9.23 9.23 0 0 0-2.59-2.808 16.859 16.859 0 0 0-3.65-1.968 239.064 239.064 0 0 0-4.186-1.614 51.564 51.564 0 0 1-4.188-1.783 15.11 15.11 0 0 1-3.65-2.44c-1.075-.973-1.94-2.168-2.59-3.581-.65-1.412-.878-4.083-.878-4.083a26.916 26.916 0 0 1-.097-1.584c0-.25.05-.962.11-1.583 0 0 .198-2.044.815-3.478a11.93 11.93 0 0 1 2.539-3.768 11.906 11.906 0 0 1 3.784-2.54c1.447-.615 3.498-.814 3.498-.814.62-.061 1.638-.11 2.26-.11h.827c.624 0 1.642.05 2.263.11 0 0 2.044.199 3.48.815a11.95 11.95 0 0 1 3.766 2.539 11.93 11.93 0 0 1 2.539 3.768c.617 1.434.816 3.478.816 3.478.06.62.109 1.409.109 1.75 0 .343-.503.705-1.12.806l-2.1.342c-.614.1-1.118-.257-1.118-.793s-.05-1.484-.11-2.105c0 0-.092-.95-.495-1.881a7.834 7.834 0 0 0-1.65-2.438 7.798 7.798 0 0 0-2.437-1.648c-.931-.404-1.881-.497-1.881-.497a28.974 28.974 0 0 0-2.263-.11h-.424c-.623 0-1.641.05-2.261.11 0 0-.952.093-1.882.497a7.991 7.991 0 0 0-2.455 1.648 7.646 7.646 0 0 0-1.665 2.438 7.013 7.013 0 0 0-.495 1.88 23.306 23.306 0 0 0-.111 1.584c0 .25.059.96.129 1.58 0 0 .196 1.722.847 2.776.649 1.054 1.514 1.957 2.59 2.708a18.415 18.415 0 0 0 3.649 1.95c1.356.55 2.752 1.11 4.187 1.682 1.435.572 2.83 1.2 4.187 1.883a15.858 15.858 0 0 1 3.65 2.523c1.076.998 1.939 2.215 2.589 3.649.65 1.436.88 4.117.88 4.117.053.622.096 1.456.096 1.853z"/></g><g><path fill="#fff" d="M33.422 36.031l14.207-.113-6.972-24.379-.135-1.782-.134 1.782z"/></g><g><path fill="#303c42" d="M41.952 1.999c-.176-.6-.83-1.088-1.454-1.088h-.019c-.624 0-1.277.489-1.453 1.088L25.537 48.054c-.174.598.192 1.088.816 1.088h2.24c.623 0 1.272-.492 1.441-1.091l3.723-13.19c.17-.6.447-1.582.618-2.181l5.703-20.05c.17-.6.34-1.492.377-1.983.037-.49.097-.49.134 0 .037.49.208 1.382.38 1.982l5.733 20.052c.171.599.451 1.58.62 2.18l3.722 13.19c.17.599.818 1.09 1.442 1.09h2.206c.623 0 .99-.49.813-1.087z"/></g><g><path fill="#303c42" d="M191.394 49.141c-.623 0-.822-.404-.442-.899l17.15-22.317c.38-.495.38-1.304 0-1.799L190.952 1.81c-.38-.495-.181-.899.442-.899h3.114c.624 0 1.442.407 1.817.905l16.798 22.304c.375.5.375 1.313 0 1.811l-16.798 22.305c-.375.498-1.193.905-1.817.905z"/></g><g><path fill="#303c42" d="M193.195 49.14h26.01c.623 0 1.133-.508 1.133-1.132v-1.87c0-.623-.51-1.133-1.134-1.133h-21.67zm4.34-44.092h21.67c.623 0 1.133-.51 1.133-1.134v-1.87c0-.622-.51-1.133-1.134-1.133h-26.009z"/></g></g></svg>