<svg xmlns="http://www.w3.org/2000/svg" width="123" height="24" viewBox="0 0 123 24"><g><g><path fill="#ffffff" d="M14.18 3.998H8.85V22.96H5.37V3.998H.039V.677h14.142z"/></g><g><path fill="#ffffff" d="M29.661 22.638l-3.562.91-1.367-4.284h-7.097l-1.472 4.339-3.562-.992L20.957.436h.803zm-5.973-6.695l-2.383-7.58-2.545 7.58z"/></g><g><path fill="#ffffff" d="M44.578 16.237L34.08 23.575l-2.062-2.785 7.178-4.874-9.32-8.704L40.213.114l2.17 2.732-7.125 4.687z"/></g><g><path fill="#ffffff" d="M61.344 21.058l-2.571 2.49-8.303-8.65v8.088h-3.481V.676h3.48v7.5L58.265.115l2.57 2.41-9.265 8.918z"/></g><g><path fill="#ffffff" d="M77.814 22.96h-14.06V.677h3.481v18.962h7.099V.677h3.48z"/></g><g><path fill="#ffffff" d="M93.91 22.96H81.565V.677h3.482v18.962h8.865z"/></g><g><path fill="#ffffff" d="M106.686 2.793l-8.598 7.23h7.687v3.215h-7.713l8.544 7.338-2.277 2.973-12.56-11.864L104.06.06z"/></g><g><path fill="#ffffff" d="M122.407 16.237l-10.5 7.338-2.061-2.785 7.178-4.874-9.321-8.704L118.04.114l2.17 2.732-7.124 4.687z"/></g></g></svg>