<svg xmlns="http://www.w3.org/2000/svg" width="19.5" height="18" viewBox="0 0 39 36"><g><g><path fill="#303c42" d="M38.373 22.715c.478 1.312.642 2.803.473 4.31-.267 2.387-1.317 4.505-3.21 6.473-.824.86-1.918 1.496-3.25 1.892-2.408.716-5.108-.521-5.88-.917-.896-.46-1.69-.171-2.608.164-.273.1-.556.204-.85.289-1.924.556-3.642.826-5.252.827-1.588 0-3.05-.145-4.344-.433-1.747-.39-3.596-1.21-5.655-2.511-1.294-.818-2.487-1.71-3.445-2.425-.3-.224-.583-.435-.847-.628-.114-.087-.45-.247-.82-.39-.111-.044-.222-.086-.33-.127a8.962 8.962 0 0 1-.688-.283 1.553 1.553 0 0 1-.275-.166 1.598 1.598 0 0 1-.61-1.256v-1.402c.003-.155.022-.278.053-.466.03-.173.072-.384.126-.632.1-.467.25-1.1.442-1.88.344-1.392.822-3.238 1.422-5.487A610.842 610.842 0 0 1 5.843 6.734c.199-.687.335-1.14.416-1.382.12-.343.323-.532.524-.685.109-.08.217-.144.323-.192l9.633-4.4A.741.741 0 0 1 17.64.3l3.275 4.263c.245.335.372.728.372 1.123 0 .462-.168.907-.477 1.252l-2.938 3.294c-.356.4-.867.629-1.402.629h-.004c-.441 0-.87-.157-1.208-.441l-.705-.65a2.03 2.03 0 0 1-.237.126 4.258 4.258 0 0 1-1.021.292l-.176.028a.708.708 0 0 1 .029.162l.527 8.958c1.412-.842 2.89-1.268 4.402-1.268h.01c1.384 0 2.755.345 4.078 1.023.342.174.67.368.979.575.959-1.15 2.015-2.027 3.139-2.608 2.544-1.315 5.31-1.351 7.587-.1 1.91 1.05 3.552 3.149 4.502 5.757zM12.203 8.804c.098-.004.24-.012.402-.028.389-.036.763-.111 1-.2a.877.877 0 0 0 .276-.146.747.747 0 0 1 1.176-.225l1.169 1.078a.39.39 0 0 0 .534-.044l2.937-3.294a.389.389 0 0 0 .024-.488l-2.902-3.778L7.656 5.88a78.057 78.057 0 0 0-.626 2.124 495.773 495.773 0 0 0-1.136 4.053 594.12 594.12 0 0 0-2.568 9.574c-.523 2.032-.868 3.47-.998 4.158-.036.19-.053.322-.054.346v1.399c0 .034.01.058.037.079l.088.038c.088.038.215.088.357.143l.158.06c.258.099.55.212.826.337.2.09.433.205.645.359.27.198.556.412.857.636.99.74 2.115 1.579 3.35 2.36 1.912 1.21 3.607 1.967 5.183 2.317 1.186.264 2.536.398 4.01.398h.01c2.12-.001 4.325-.456 7.15-1.476.812-.292 1.387-.022 2.053.29.19.09.392.185.609.27 1.123.44 2.805.977 4.435.547a5.94 5.94 0 0 0 2.234-1.16c2.635-2.144 3.875-6.366 2.766-9.41-.734-2.015-2.13-3.795-3.73-4.764-1.83-1.105-4.074-1.171-6.004-.175-.864.447-2.108 1.165-3.041 2.268 1.6 1.8 1.573 3.056 1.573 3.069a.745.745 0 0 1-1.474.15h-.011l-.022-.232a2.458 2.458 0 0 0-.151-.461c-.18-.418-.572-1.095-1.415-1.942l-.05-.04c-.054-.042-.138-.108-.25-.187a8.152 8.152 0 0 0-.981-.591c-.763-.391-1.972-.858-3.394-.858h-.003c-1.546.003-2.994.519-4.425 1.576-.198.739-.411 1.31-.65 1.744-.225.408-.466.683-.74.84a.903.903 0 0 1-.476.137.745.745 0 0 1-.266-1.44l.056-.064c.075-.098.36-.534.67-1.734l-.585-9.932-.052-.07a45.327 45.327 0 0 0-.488-.641.744.744 0 0 1-.062-.818.752.752 0 0 1 .728-.38l.297.03z"/></g><g><path fill="#303c42" d="M18.648 30.86a.762.762 0 0 0-.903-.592c-5.13 1.065-7.278-2.415-7.367-2.562a.762.762 0 0 0-1.397.201.76.76 0 0 0 .083.578c.029.048.714 1.19 2.17 2.156.92.61 2.466 1.341 4.594 1.355h.056c.701 0 1.431-.078 2.171-.23a.764.764 0 0 0 .592-.906z"/></g></g></svg>