<svg xmlns="http://www.w3.org/2000/svg" width="117" height="23" viewBox="0 0 117 23"><g><g><path fill="#303c42" d="M14.259 4.352H9.19v18.033H5.879V4.352H.809v-3.16h13.45z"/></g><g><path fill="#303c42" d="M28.98 22.08l-3.387.865-1.3-4.075h-6.748l-1.401 4.126-3.387-.943L20.703.964h.764zM23.3 15.71l-2.266-7.208-2.42 7.208z"/></g><g><path fill="#303c42" d="M43.167 15.991l-9.984 6.98-1.962-2.65 6.826-4.636-8.863-8.277 9.832-6.75 2.063 2.598-6.776 4.457z"/></g><g><path fill="#303c42" d="M59.112 20.576l-2.445 2.369-7.896-8.227v7.692H45.46V1.193h3.31v7.132L56.184.659l2.445 2.292-8.812 8.48z"/></g><g><path fill="#303c42" d="M74.776 22.384H61.404V1.194h3.31v18.033h6.75V1.193h3.312z"/></g><g><path fill="#303c42" d="M90.084 22.384H78.34V1.194h3.312v18.033h8.43z"/></g><g><path fill="#303c42" d="M102.232 3.205l-8.176 6.877h7.31v3.057h-7.335l8.125 6.98-2.165 2.826-11.946-11.283L99.736.607z"/></g><g><path fill="#303c42" d="M117.184 15.991l-9.984 6.98-1.961-2.65 6.826-4.636-8.864-8.277 9.832-6.75 2.063 2.598-6.775 4.457z"/></g></g></svg>