<svg xmlns="http://www.w3.org/2000/svg" width="102" height="96" viewBox="0 0 102 96"><g><g><path fill="#303c42" d="M99.552 60.676c1.305 3.581 1.655 7.46 1.232 11.235-.74 6.618-3.78 12.114-8.388 16.912-2.297 2.39-5.216 3.947-8.438 4.904-4.857 1.444-10.89-.143-15.28-2.399-3.27-1.68-6.088.205-9.425 1.17-4.48 1.295-9.118 2.173-13.794 2.175-3.76 0-7.667-.304-11.415-1.137-5.353-1.193-10.384-3.778-14.844-6.595-4.456-2.818-8.353-5.885-11.335-8.065-.35-.268-1.3-.709-2.253-1.077-.973-.386-1.938-.72-2.668-1.073a3.781 3.781 0 0 1-.664-.4 3.834 3.834 0 0 1-1.465-3.023v-3.712c.005-.386.057-.705.134-1.17.078-.454.189-1.006.33-1.655.28-1.297.679-2.985 1.167-4.966.978-3.962 2.314-9.09 3.759-14.51 2.892-10.84 6.22-22.838 7.985-28.923.507-1.745.879-2.99 1.096-3.642.308-.874.859-1.328 1.258-1.634.39-.284.696-.424.784-.464L42.818.985a1.599 1.599 0 0 1 1.932.481l8.666 11.281.024.033c.59.808.884 1.765.883 2.711a4.596 4.596 0 0 1-1.167 3.063l-7.774 8.715a4.596 4.596 0 0 1-3.435 1.538 4.58 4.58 0 0 1-2.96-1.079l-.055-.048-2.01-1.853c-.27.177-.543.334-.826.462-.856.381-1.76.597-2.61.745-.331.056-.65.1-.954.136.144.23.24.488.256.758l1.43 24.326c4.224-2.649 8.353-3.632 12.015-3.626 4.36.003 8.033 1.341 10.618 2.663a25.215 25.215 0 0 1 2.833 1.694c2.704-3.306 5.549-5.593 8.405-7.07 6.197-3.205 13.487-3.699 19.723-.27 5.597 3.076 9.599 9.155 11.74 15.031zM89.3 87.348c7.083-5.766 10.394-17.195 7.434-25.318-1.801-4.943-5.387-9.993-10.027-12.797-5.011-3.029-11.08-3.15-16.253-.477-2.454 1.27-5.88 3.28-8.37 6.346 4.099 4.5 4.296 7.717 4.282 8.095a1.598 1.598 0 0 1-3.194.038c-.004 0-.005-.032-.005-.032l-.043-.267a6.67 6.67 0 0 0-.426-1.308c-.51-1.189-1.576-3.002-3.822-5.258l-.16-.13c-.15-.12-.38-.296-.683-.51a22.051 22.051 0 0 0-2.64-1.593c-2.271-1.164-5.468-2.312-9.161-2.31-3.581.007-7.654 1.051-12.037 4.321-.576 2.172-1.157 3.636-1.718 4.66-.61 1.101-1.208 1.726-1.817 2.078-.401.233-.8.314-1.068.311a1.6 1.6 0 0 1-1.6-1.6c0-.71.467-1.306 1.107-1.514l.213-.245c.39-.509 1.124-1.886 1.867-4.798l-1.556-26.45-.204-.274c-.31-.414-.755-1.004-1.296-1.704a1.594 1.594 0 0 1-.134-1.753 1.593 1.593 0 0 1 1.56-.815l.787.08.332-.009c.269-.01.653-.033 1.089-.076.87-.08 1.972-.262 2.743-.55.518-.184.847-.432.894-.51l.016-.024a1.609 1.609 0 0 1 1.138-.915 1.605 1.605 0 0 1 1.406.391l3.095 2.854a1.398 1.398 0 0 0 1.944-.145l7.774-8.715c.238-.266.355-.596.356-.934 0-.292-.088-.578-.27-.828l-7.866-10.24-24.334 11.112-.027.014-.127.075-.2.166c-.265.805-.88 2.886-1.69 5.733a1352.75 1352.75 0 0 0-3.007 10.73c-2.261 8.185-4.867 17.834-6.797 25.338-1.285 4.995-2.274 9.068-2.644 11.026-.098.51-.15.896-.151.974l-.001 3.712a.625.625 0 0 0 .233.496l.032.018.282.133c.247.11.587.243.972.39.77.3 1.71.646 2.58 1.041.586.27 1.136.548 1.642.914 3.052 2.234 6.869 5.234 11.155 7.944 4.284 2.71 9.027 5.112 13.83 6.175 3.447.767 7.135 1.063 10.72 1.062 6.575-.002 12.91-1.71 19.049-3.925 2.598-.937 4.245.484 6.777 1.478 3.777 1.482 7.939 2.523 11.967 1.46 2.23-.589 4.262-1.684 6.052-3.14z"/></g><g><path fill="none" stroke="#303c42" stroke-miterlimit="20" stroke-width=".28" d="M99.552 60.676c1.305 3.581 1.655 7.46 1.232 11.235-.74 6.618-3.78 12.114-8.388 16.912-2.297 2.39-5.216 3.947-8.438 4.904-4.857 1.444-10.89-.143-15.28-2.399-3.27-1.68-6.088.205-9.425 1.17-4.48 1.295-9.118 2.173-13.794 2.175-3.76 0-7.667-.304-11.415-1.137-5.353-1.193-10.384-3.778-14.844-6.595-4.456-2.818-8.353-5.885-11.335-8.065-.35-.268-1.3-.709-2.253-1.077-.973-.386-1.938-.72-2.668-1.073a3.781 3.781 0 0 1-.664-.4 3.834 3.834 0 0 1-1.465-3.023v-3.712c.005-.386.057-.705.134-1.17.078-.454.189-1.006.33-1.655.28-1.297.679-2.985 1.167-4.966.978-3.962 2.314-9.09 3.759-14.51 2.892-10.84 6.22-22.838 7.985-28.923.507-1.745.879-2.99 1.096-3.642.308-.874.859-1.328 1.258-1.634.39-.284.696-.424.784-.464L42.818.985a1.599 1.599 0 0 1 1.932.481l8.666 11.281.024.033c.59.808.884 1.765.883 2.711a4.596 4.596 0 0 1-1.167 3.063l-7.774 8.715a4.596 4.596 0 0 1-3.435 1.538 4.58 4.58 0 0 1-2.96-1.079l-.055-.048-2.01-1.853c-.27.177-.543.334-.826.462-.856.381-1.76.597-2.61.745-.331.056-.65.1-.954.136.144.23.24.488.256.758l1.43 24.326c4.224-2.649 8.353-3.632 12.015-3.626 4.36.003 8.033 1.341 10.618 2.663a25.215 25.215 0 0 1 2.833 1.694c2.704-3.306 5.549-5.593 8.405-7.07 6.197-3.205 13.487-3.699 19.723-.27 5.597 3.076 9.599 9.155 11.74 15.031zM89.3 87.348c7.083-5.766 10.394-17.195 7.434-25.318-1.801-4.943-5.387-9.993-10.027-12.797-5.011-3.029-11.08-3.15-16.253-.477-2.454 1.27-5.88 3.28-8.37 6.346 4.099 4.5 4.296 7.717 4.282 8.095a1.598 1.598 0 0 1-3.194.038c-.004 0-.005-.032-.005-.032l-.043-.267a6.67 6.67 0 0 0-.426-1.308c-.51-1.189-1.576-3.002-3.822-5.258l-.16-.13c-.15-.12-.38-.296-.683-.51a22.051 22.051 0 0 0-2.64-1.593c-2.271-1.164-5.468-2.312-9.161-2.31-3.581.007-7.654 1.051-12.037 4.321-.576 2.172-1.157 3.636-1.718 4.66-.61 1.101-1.208 1.726-1.817 2.078-.401.233-.8.314-1.068.311a1.6 1.6 0 0 1-1.6-1.6c0-.71.467-1.306 1.107-1.514l.213-.245c.39-.509 1.124-1.886 1.867-4.798l-1.556-26.45-.204-.274c-.31-.414-.755-1.004-1.296-1.704a1.594 1.594 0 0 1-.134-1.753 1.593 1.593 0 0 1 1.56-.815l.787.08.332-.009c.269-.01.653-.033 1.089-.076.87-.08 1.972-.262 2.743-.55.518-.184.847-.432.894-.51l.016-.024a1.609 1.609 0 0 1 1.138-.915 1.605 1.605 0 0 1 1.406.391l3.095 2.854a1.398 1.398 0 0 0 1.944-.145l7.774-8.715c.238-.266.355-.596.356-.934 0-.292-.088-.578-.27-.828l-7.866-10.24-24.334 11.112-.027.014-.127.075-.2.166c-.265.805-.88 2.886-1.69 5.733a1352.75 1352.75 0 0 0-3.007 10.73c-2.261 8.185-4.867 17.834-6.797 25.338-1.285 4.995-2.274 9.068-2.644 11.026-.098.51-.15.896-.151.974l-.001 3.712a.625.625 0 0 0 .233.496l.032.018.282.133c.247.11.587.243.972.39.77.3 1.71.646 2.58 1.041.586.27 1.136.548 1.642.914 3.052 2.234 6.869 5.234 11.155 7.944 4.284 2.71 9.027 5.112 13.83 6.175 3.447.767 7.135 1.063 10.72 1.062 6.575-.002 12.91-1.71 19.049-3.925 2.598-.937 4.245.484 6.777 1.478 3.777 1.482 7.939 2.523 11.967 1.46 2.23-.589 4.262-1.684 6.052-3.14z"/></g><g><path fill="#303c42" d="M45.117 82.155C32.34 84.807 26.934 76.043 26.71 75.67a.975.975 0 0 0-1.676.993c.064.108 1.6 2.663 4.9 4.851 2.275 1.507 5.748 3.05 10.46 3.079 1.568.01 3.275-.147 5.12-.53a.974.974 0 1 0-.397-1.908z"/></g><g><path fill="none" stroke="#303c42" stroke-miterlimit="20" stroke-width=".99" d="M45.117 82.155C32.34 84.807 26.934 76.043 26.71 75.67a.975.975 0 0 0-1.676.993c.064.108 1.6 2.663 4.9 4.851 2.275 1.507 5.748 3.05 10.46 3.079 1.568.01 3.275-.147 5.12-.53a.974.974 0 1 0-.397-1.908z"/></g></g></svg>