<svg xmlns="http://www.w3.org/2000/svg" width="31" height="42" viewBox="0 0 31 42"><g><g><path fill="#303c42" d="M10.588 36.781l-.001.03c0 2.546 2.078 4.61 4.642 4.61 2.563 0 4.64-2.064 4.64-4.61v-.03z"/></g><g><path fill="#303c42" d="M29.877 29.904a3.2 3.2 0 0 1 .143 2.931c-.447.972-1.334 1.575-2.315 1.575H2.752c-.98 0-1.868-.602-2.316-1.573a3.202 3.202 0 0 1 .145-2.933l3.903-6.59v-8.236c0-5.644 3.406-10.567 8.164-11.904V.454h5.161v2.719c4.758 1.337 8.164 6.26 8.164 11.905v8.236zm-.927 2.44a2.04 2.04 0 0 0-.087-1.84l-4.068-6.868v-8.559c0-5.279-3.24-9.852-7.706-10.873l-.458-.104h-2.804V4.1l-.458.104C8.904 5.226 5.663 9.798 5.663 15.077v8.56l-4.068 6.867a2.03 2.03 0 0 0-.087 1.84c.252.547.728.888 1.244.888h24.953c.516 0 .992-.34 1.245-.888z"/></g></g></svg>