<svg xmlns="http://www.w3.org/2000/svg" width="57" height="51" viewBox="0 0 57 51"><g><g><path fill="#303c42" d="M51.123 7.077a5.113 5.113 0 0 1 5.113 5.114v33.366a5.113 5.113 0 0 1-5.113 5.114H11.511a5.114 5.114 0 0 1-5.114-5.114V12.191a5.114 5.114 0 0 1 5.114-5.114zM35.799 40.034a.567.567 0 0 0-.568-.568H12.647a.566.566 0 0 0-.567.568v3.977c0 .315.253.569.567.569h22.584a.568.568 0 0 0 .568-.569zm14.755 0a.567.567 0 0 0-.568-.568H44.02a.568.568 0 0 0-.569.568v3.977c0 .315.255.569.569.569h5.966a.568.568 0 0 0 .568-.569zm0-27.843H12.079v21.75h38.475z"/></g><g><path fill="none" stroke="#303c42" stroke-dasharray="11.339 5.669" stroke-linecap="round" stroke-miterlimit="20" stroke-width="2.84" d="M1.315 43.746v0V11.19v0S.781 2.12 12.079 2.12h32.424v0"/></g></g></svg>