<svg xmlns="http://www.w3.org/2000/svg" width="41" height="31" viewBox="0 0 41 31"><g><g><path fill="#303c42" d="M34.739.13A6.059 6.059 0 0 1 40.79 6.18v12.717a6.059 6.059 0 0 1-6.052 6.052H20.786L9.158 30.593a.673.673 0 0 1-.972-.727l.183-4.916h-1.87a6.058 6.058 0 0 1-6.05-6.052V6.181A6.058 6.058 0 0 1 6.499.13zm4.707 6.051a4.712 4.712 0 0 0-4.707-4.707H6.499a4.712 4.712 0 0 0-4.705 4.707v12.717A4.712 4.712 0 0 0 6.5 23.605h2.69a.671.671 0 0 1 .658.807l-.067 4.336 10.526-5.066a.665.665 0 0 1 .313-.077h14.119a4.712 4.712 0 0 0 4.707-4.707z"/></g></g></svg>