<svg xmlns="http://www.w3.org/2000/svg" width="15" height="12" viewBox="0 0 15 12"><g><g><path fill="#303c42" d="M12.39.858a2.322 2.322 0 0 1 2.314 2.315v4.463A2.32 2.32 0 0 1 12.39 9.95H7.537l-4.04 1.962a.438.438 0 0 1-.449-.038.431.431 0 0 1-.165-.427l.054-1.497H2.48A2.32 2.32 0 0 1 .165 7.636V3.173A2.322 2.322 0 0 1 2.48.858zM3.754 9.253c.082.1.113.23.087.356l-.015 1.176 3.415-1.643a.413.413 0 0 1 .193-.046h4.954a1.464 1.464 0 0 0 1.46-1.46V3.173a1.464 1.464 0 0 0-1.46-1.46H2.48a1.464 1.464 0 0 0-1.46 1.46v4.463a1.464 1.464 0 0 0 1.46 1.46h.943c.13 0 .25.057.332.157z"/></g></g></svg>