<svg xmlns="http://www.w3.org/2000/svg" width="41" height="31" viewBox="0 0 41 31"><g><g><path fill="#303c42" d="M34.739-.012a6.21 6.21 0 0 1 6.194 6.193v12.717a6.21 6.21 0 0 1-6.194 6.193h-13.92l-11.6 5.63a.818.818 0 0 1-.862-.071.82.82 0 0 1-.31-.813l.175-4.746H6.5a6.21 6.21 0 0 1-6.193-6.193V6.181A6.21 6.21 0 0 1 6.5-.012zM9.82 23.763a.808.808 0 0 1 .166.677l-.061 4.08 10.319-4.966a.811.811 0 0 1 .375-.09h14.119a4.579 4.579 0 0 0 4.565-4.566V6.181a4.576 4.576 0 0 0-4.565-4.565H6.499a4.577 4.577 0 0 0-4.564 4.565v12.717A4.58 4.58 0 0 0 6.5 23.463h2.69c.246 0 .476.11.63.3z"/></g></g></svg>